@startuml
class TestSettings {
    - <<readonly>> m_Settings : TestSetting[]
    - m_Disposed : bool
    + scriptingBackend : ScriptingImplementation? <<get>> <<set>>
    + Architecture : string <<get>> <<set>>
    + apiProfile : ApiCompatibilityLevel? <<get>> <<set>>
    + appleEnableAutomaticSigning : bool? <<get>> <<set>>
    + appleDeveloperTeamID : string <<get>> <<set>>
    + iOSManualProvisioningProfileType : ProvisioningProfileType? <<get>> <<set>>
    + iOSManualProvisioningProfileID : string <<get>> <<set>>
    + tvOSManualProvisioningProfileType : ProvisioningProfileType? <<get>> <<set>>
    + tvOSManualProvisioningProfileID : string <<get>> <<set>>
    + playerGraphicsAPIs : string[] <<get>> <<set>>
    + autoGraphicsAPIs : bool <<get>> <<set>>
    + Dispose() : void
    + SetupProjectParameters() : void
}
abstract class TestSetting {
    + {abstract} Setup(settings:TestSettings) : void
    + {abstract} Cleanup() : void
}
class "TestSetting`1"<T> {
    - m_ValueBeforeSetup : T
    - m_GetFromSettings : Func<TestSettings, T>
    - m_GetCurrentValue : Func<T>
    - m_SetValue : Action<T>
    + TestSetting(getFromSettings:Func<TestSettings, T>, getCurrentValue:Func<T>, setValue:Action<T>)
    + <<override>> Setup(settings:TestSettings) : void
    + <<override>> Cleanup() : void
}
ITestSettings <|-- TestSettings
TestSettings +-- TestSetting
TestSettings +-- "TestSetting`1"
TestSetting <|-- "TestSetting`1"
@enduml
