@startuml
class ShortcutAttribute {
    <<readonly>> m_Identifier : string
    <<readonly>> m_EventCommandName : string
    <<readonly>> m_MenuShortcut : string
    + ShortcutAttribute(identifier:string)
    + ShortcutAttribute(identifier:string, commandName:string)
    + ShortcutAttribute(key:KeyCode, modifiers:ShortcutModifiers)
    + GetMenuShortcut() : string
    + MatchesEvent(evt:Event) : bool
}
class ShortcutPlatformOverrideAttribute {
    platform : RuntimePlatform <<get>>
    + ShortcutPlatformOverrideAttribute(platform:RuntimePlatform, key:KeyCode, modifiers:ShortcutModifiers)
    + MatchesCurrentPlatform() : bool
}
Attribute <|-- ShortcutAttribute
ShortcutAttribute <|-- ShortcutPlatformOverrideAttribute
@enduml
