@startuml
class AlertBox {
    + <<const>> UssClassName : string = "alert-box"
    + <<const>> IconUssClassName : string
    + <<const>> TextUssClassName : string
    + <<const>> ButtonUssClassName : string
    {static} <<readonly>> k_LayoutPath : string
    {static} <<readonly>> k_StylePath : string
    <<readonly>> m_Button : Button
    <<readonly>> m_Icon : VisualElement
    <<readonly>> m_Text : TextElement
    <<const>> k_UssIconInfo : string = "icon-info"
    <<const>> k_UssIconWarning : string = "icon-warning"
    <<const>> k_UssIconAlert : string = "icon-alert"
    <<readonly>> m_AlertEntryList : SortedSet<AlertEntry>
    + AlertBox()
    + QueueAlert(id:string, level:AlertLevel, message:string, button:(string text, Action action)?) : void
    + DequeueAlert(id:string) : void
    UpdateAlertBox(previousButtonAction:Action) : void
    SetAlertLevel(level:AlertLevel) : void
}
enum AlertLevel {
    Info,
    Warning,
    Alert,
}
class AlertEntry <<struct>> {
    + <<readonly>> Id : string
    + <<readonly>> Level : AlertLevel
    + <<readonly>> Message : string
    + Button : AlertButton?
    + AlertEntry(id:string, level:AlertLevel, message:string, button:AlertButton?)
    + <<override>> GetHashCode() : int
    + <<override>> Equals(obj:object) : bool
    + CompareTo(other:AlertEntry) : int
}
class UxmlFactory <<new>> {
}
class AlertButton <<struct>> {
    + Text : string
    + Action : Action
}
VisualElement <|-- AlertBox
AlertBox +-- AlertLevel
AlertBox +-- AlertEntry
"IComparable`1" "<AlertEntry>" <|-- AlertEntry
AlertBox +-- UxmlFactory
"UxmlFactory`1" "<AlertBox>" <|-- UxmlFactory
AlertEntry +-- AlertButton
@enduml
