@startuml
class IconTextButton {
    + <<const>> ussClassName : string = "unity-icon-text-button"
    + <<const>> imageUssClassName : string
    + <<const>> textUssClassName : string
    {static} <<readonly>> k_StylePath : string
    <<readonly>> m_TextElement : TextElement
    <<readonly>> m_Image : VisualElement
    +  <<event>> Clicked : Action 
    + IconTextButton()
    + IconTextButton(clickEvent:Action)
    OnClick() : void
    + Text : string <<get>> <<set>>
    + Image : Texture2D <<get>> <<set>>
    + <<override>> canGrabFocus : bool <<get>> = true
    # <<override>> ExecuteDefaultActionAtTarget(evt:EventBase) : void
}
class UxmlFactory <<new>> {
}
class UxmlTraits <<new>> {
    <<readonly>> m_Text : UxmlStringAttributeDescription
    + <<override>> Init(ve:VisualElement, bag:IUxmlAttributes, cc:CreationContext) : void
}
VisualElement <|-- IconTextButton
IconTextButton +-- UxmlFactory
"UxmlFactory`2" "<IconTextButton,UxmlTraits>" <|-- UxmlFactory
IconTextButton +-- UxmlTraits
@enduml
