@startuml
class IconButton {
    + <<const>> UssClassName : string = "unity-icon-button"
    + <<const>> UndoUssClassName : string = "btn-undo"
    + <<const>> ShowUssClassName : string = "btn-show"
    + <<const>> MergeUssClassName : string = "btn-merge"
    + <<const>> ChooseMineUssClassName : string = "btn-choose-mine"
    + <<const>> ChooseRemoteUssClassName : string = "btn-choose-remote"
    + <<const>> DiffUssCLassName : string = "btn-diff"
    {static} <<readonly>> k_StylePath : string
    +  <<event>> Clicked : Action 
    + IconButton()
    + IconButton(clickEvent:Action)
    OnClick() : void
    + UnregisterClickEvents() : void
    + Image : Texture2D <<get>> <<set>>
    + <<override>> canGrabFocus : bool <<get>> = true
    # <<override>> ExecuteDefaultActionAtTarget(evt:EventBase) : void
}
class UxmlFactory <<new>> {
}
Image <|-- IconButton
IconButton +-- UxmlFactory
"UxmlFactory`1" "<IconButton>" <|-- UxmlFactory
@enduml
