@startuml
class Paginator {
    + <<const>> UssClassName : string = "paginator"
    + <<const>> PageTextUssClassName : string
    + <<const>> BackButtonUssClassName : string
    + <<const>> ForwardsButtonUssClassName : string
    {static} <<readonly>> k_LayoutPath : string
    {static} <<readonly>> k_StylePath : string
    + <<const>> MoveBackwards : int
    + <<const>> MoveForwards : int = 1
    +  <<event>> ClickedMovePage : Action<int> 
    <<readonly>> m_PageText : Label
    <<readonly>> m_BackButton : Button
    <<readonly>> m_ForwardsButton : Button
    + Paginator()
    + SetPage(page:int, maxPage:int) : void
}
class UxmlFactory <<new>> {
}
VisualElement <|-- Paginator
Paginator +-- UxmlFactory
"UxmlFactory`1" "<Paginator>" <|-- UxmlFactory
@enduml
