@startuml
class EditTrackInAnimationWindow {
    + {static} Do(track:TrackAsset) : bool
    + <<override>> Validate(tracks:IEnumerable<TrackAsset>) : ActionValidity
    + <<override>> Execute(tracks:IEnumerable<TrackAsset>) : bool
    {static} CreateTimeControlClipData(track:TrackAsset) : TimelineWindowTimeControl.ClipData
}
class LockSelectedTrack {
    + {static} <<readonly>> LockSelectedTrackOnlyText : string
    + {static} <<readonly>> UnlockSelectedTrackOnlyText : string
    + menuName : string <<get>>
    + <<override>> Validate(tracks:IEnumerable<TrackAsset>) : ActionValidity
    + <<override>> Execute(tracks:IEnumerable<TrackAsset>) : bool
    UpdateMenuName(tracks:IEnumerable<TrackAsset>) : void
    + {static} Lock(tracks:TrackAsset[], shouldlock:bool) : void
}
class LockTrack {
    {static} <<readonly>> k_LockText : string
    {static} <<readonly>> k_UnlockText : string
    + menuName : string <<get>>
    UpdateMenuName(tracks:IEnumerable<TrackAsset>) : void
    + <<override>> Execute(tracks:IEnumerable<TrackAsset>) : bool
    + <<override>> Validate(tracks:IEnumerable<TrackAsset>) : ActionValidity
    + {static} SetLockState(tracks:IEnumerable<TrackAsset>, shouldLock:bool) : void
}
class ShowHideMarkers {
    + isChecked : bool <<get>>
    UpdateCheckedStatus(tracks:IEnumerable<TrackAsset>) : void
    + <<override>> Validate(tracks:IEnumerable<TrackAsset>) : ActionValidity
    + <<override>> Execute(tracks:IEnumerable<TrackAsset>) : bool
    {static} ShowHide(tracks:IEnumerable<TrackAsset>, shouldLock:bool) : void
}
class MuteSelectedTrack {
    + {static} <<readonly>> MuteSelectedText : string
    + {static} <<readonly>> UnmuteSelectedText : string
    + menuName : string <<get>>
    + <<override>> Validate(tracks:IEnumerable<TrackAsset>) : ActionValidity
    + <<override>> Execute(tracks:IEnumerable<TrackAsset>) : bool
    UpdateMenuName(tracks:IEnumerable<TrackAsset>) : void
    + {static} Mute(tracks:TrackAsset[], shouldMute:bool) : void
}
class MuteTrack {
    {static} <<readonly>> k_MuteText : string
    {static} <<readonly>> k_UnMuteText : string
    + menuName : string <<get>>
    UpdateMenuName(tracks:IEnumerable<TrackAsset>) : void
    + <<override>> Execute(tracks:IEnumerable<TrackAsset>) : bool
    + <<override>> Validate(tracks:IEnumerable<TrackAsset>) : ActionValidity
    + {static} Mute(tracks:IEnumerable<TrackAsset>, shouldMute:bool) : void
}
class DeleteTracks {
    + {static} Do(timeline:TimelineAsset, track:TrackAsset) : void
    + <<override>> Validate(tracks:IEnumerable<TrackAsset>) : ActionValidity
    + <<override>> Execute(tracks:IEnumerable<TrackAsset>) : bool
}
class CopyTracksToClipboard {
    + {static} Do(tracks:TrackAsset[]) : bool
    + <<override>> Validate(tracks:IEnumerable<TrackAsset>) : ActionValidity
    + <<override>> Execute(tracks:IEnumerable<TrackAsset>) : bool
}
class DuplicateTracks {
    + <<override>> Validate(tracks:IEnumerable<TrackAsset>) : ActionValidity
    + <<override>> Execute(tracks:IEnumerable<TrackAsset>) : bool
}
class RemoveInvalidMarkersAction {
    + <<override>> Validate(tracks:IEnumerable<TrackAsset>) : ActionValidity
    + <<override>> Execute(tracks:IEnumerable<TrackAsset>) : bool
}
TrackAction <|-- EditTrackInAnimationWindow
TrackAction <|-- LockSelectedTrack
IMenuName <|-- LockSelectedTrack
TrackAction <|-- LockTrack
IMenuName <|-- LockTrack
TrackAction <|-- ShowHideMarkers
IMenuChecked <|-- ShowHideMarkers
TrackAction <|-- MuteSelectedTrack
IMenuName <|-- MuteSelectedTrack
TrackAction <|-- MuteTrack
IMenuName <|-- MuteTrack
TrackAction <|-- DeleteTracks
TrackAction <|-- CopyTracksToClipboard
TrackAction <|-- DuplicateTracks
TrackAction <|-- RemoveInvalidMarkersAction
@enduml
